# xmcd CD database file
# Copyright (C) 1993-1998 Ti Kan
#
# Track frame offsets:
# 150
# 17045
# 36200
# 63750
# 77737
# 98627
# 109460
# 125585
# 142665
# 167355
#
# Disc length: 2433 seconds
#
# Revision: 1
# Processed by: cddbd v1.4PL0 Copyright (c) Steve Scherf et al.
# Submitted via: Gronk 1.4
#
DISCID=75097f0a
DTITLE=John Carey - Hot for Louisiana
DYEAR=1900
DGENRE=blues
TTITLE0=Workbelt Blues
TTITLE1=Feel So Fine
TTITLE2=Hold You Accountabl;e
TTITLE3=Hot for Louisiana
TTITLE4=Blues for Bistra
TTITLE5=Johnny's Boogie
TTITLE6=People You Love
TTITLE7=Morning Train
TTITLE8=Another Reason
TTITLE9=You Must Decide
EXTD=
EXTT0=
EXTT1=
EXTT2=
EXTT3=
EXTT4=
EXTT5=
EXTT6=
EXTT7=
EXTT8=
EXTT9=
PLAYORDER=
